<?xml version="1.0" encoding="UTF-8" standalone="no"?>
<!-- Created with Inkscape (http://www.inkscape.org/) -->

<svg
   xmlns:dc="http://purl.org/dc/elements/1.1/"
   xmlns:cc="http://creativecommons.org/ns#"
   xmlns:rdf="http://www.w3.org/1999/02/22-rdf-syntax-ns#"
   xmlns:svg="http://www.w3.org/2000/svg"
   xmlns="http://www.w3.org/2000/svg"
   xmlns:sodipodi="http://sodipodi.sourceforge.net/DTD/sodipodi-0.dtd"
   xmlns:inkscape="http://www.inkscape.org/namespaces/inkscape"
   width="311.5759mm"
   height="102.81544mm"
   viewBox="0 0 311.5759 102.81544"
   version="1.1"
   id="svg3979"
   inkscape:version="0.92.4 (5da689c313, 2019-01-14)"
   sodipodi:docname="viral-shop.svg">
  <defs
     id="defs3973" />
  <sodipodi:namedview
     id="base"
     pagecolor="#ffffff"
     bordercolor="#666666"
     borderopacity="1.0"
     inkscape:pageopacity="0.0"
     inkscape:pageshadow="2"
     inkscape:zoom="0.35"
     inkscape:cx="708.80484"
     inkscape:cy="360.0112"
     inkscape:document-units="mm"
     inkscape:current-layer="layer1"
     showgrid="false" />
  <metadata
     id="metadata3976">
    <rdf:RDF>
      <cc:Work
         rdf:about="">
        <dc:format>image/svg+xml</dc:format>
        <dc:type
           rdf:resource="http://purl.org/dc/dcmitype/StillImage" />
        <dc:title></dc:title>
      </cc:Work>
    </rdf:RDF>
  </metadata>
  <g
     inkscape:label="Capa 1"
     inkscape:groupmode="layer"
     id="layer1"
     transform="translate(81.704613,-141.27086)">
    <rect
       style="opacity:1;vector-effect:none;fill:#000000;fill-opacity:1;stroke:none;stroke-width:10.05400085;stroke-linecap:round;stroke-linejoin:round;stroke-miterlimit:4;stroke-dasharray:none;stroke-dashoffset:0;stroke-opacity:1;paint-order:stroke fill markers"
       id="rect4166"
       width="311.5759"
       height="102.81544"
       x="-81.704613"
       y="141.27086" />
    <path
       style="opacity:1;vector-effect:none;fill:#8103d6;fill-opacity:1;stroke:none;stroke-width:0.1;stroke-linecap:round;stroke-linejoin:round;stroke-miterlimit:4;stroke-dasharray:none;stroke-dashoffset:0;stroke-opacity:1;paint-order:normal"
       d="m -68.506066,154.47956 33.712153,48.08285 33.7121547,-48.08285 H -14.438049 l -20.355864,29.03388 -20.355862,-29.03388 z m 74.2042557,0 v 8.33592 H 69.172865 c 3.54573,-1.3e-4 6.42023,2.04585 6.42028,4.56975 -5e-5,2.5239 -2.87455,4.56988 -6.42028,4.56975 h -30.38626 -11.72176 v 30.60743 h 11.72176 v -22.07617 h 12.30933 c 4.36228,0 8.31377,1.47794 11.45046,5.95157 l 11.30577,16.1246 h 13.35578 l -15.69879,-22.39088 c 9.09727,-0.82974 15.91116,-6.30222 15.92048,-12.7863 1.2e-4,-7.12759 -8.17375,-12.90569 -18.25677,-12.90567 z m 156.0674703,0 v 32.57475 c 0.35911,4.76006 2.33538,8.17097 5.86889,10.96626 3.75773,2.90838 8.85442,4.54184 14.16865,4.54184 h 35.32342 V 194.227 H 181.8032 c -2.20534,0 -4.32034,-0.75603 -5.87975,-2.10116 -1.55941,-1.34514 -2.4355,-3.16922 -2.43551,-5.07153 V 154.47956 Z M 5.6981897,171.95498 v 30.60743 H 17.419954 v -30.60743 z m 24.9540353,41.99588 c -2.95206,1.1e-4 -5.34507,2.39335 -5.3449,5.34541 1.1e-4,2.95186 2.39304,5.34479 5.3449,5.34489 l 7.17837,-5.3e-4 c 1.53441,2.7e-4 2.77815,1.24424 2.77812,2.77865 3e-5,1.5344 -1.24371,2.77837 -2.77812,2.77864 h -6.242 c -1.5346,2e-5 -2.77866,-1.24403 -2.77864,-2.77864 h -3.50263 c -2e-5,3.46905 2.81222,6.28129 6.28127,6.28127 h 6.242 c 3.46886,-2.7e-4 6.28078,-2.81241 6.28075,-6.28127 2e-5,-3.46886 -2.81189,-6.28101 -6.28075,-6.28127 h -7.17837 c -1.0173,9e-5 -1.84208,-0.82446 -1.84227,-1.84175 -10e-5,-1.0175 0.82477,-1.84236 1.84227,-1.84227 h 8.11423 c 1.0175,-9e-5 1.84236,0.82477 1.84226,1.84227 h 3.50263 c 1.8e-4,-2.95206 -2.39283,-5.34531 -5.34489,-5.34541 z m 26.58029,0 v 19.7497 h 3.50314 v -8.99893 h 12.80387 v 8.99893 h 3.50315 v -19.7497 h -3.50315 v 7.24762 h -12.80387 v -7.24762 z m 42.24755,0 c -5.45374,-1e-5 -9.87487,4.42112 -9.87485,9.87485 -2e-5,5.45374 4.42111,9.87487 9.87485,9.87485 5.453725,2e-5 9.874855,-4.42111 9.874845,-9.87485 1e-5,-5.45373 -4.42112,-9.87487 -9.874845,-9.87485 z m 22.255995,0 v 19.7497 h 3.50263 v -9.0594 h 9.15035 c 2.95186,-1e-4 5.34478,-2.39303 5.34489,-5.34489 1.8e-4,-2.95206 -2.39283,-5.3453 -5.34489,-5.34541 h -9.15035 -1.35857 z m -22.255995,3.50315 c 3.518955,7e-5 6.371625,2.85273 6.371695,6.3717 2.2e-4,3.51917 -2.85253,6.37215 -6.371695,6.37222 -3.51937,2.2e-4 -6.37244,-2.85285 -6.37222,-6.37222 6e-5,-3.51917 2.85305,-6.37192 6.37222,-6.3717 z m 25.758625,0 h 9.15035 c 1.01749,-1e-4 1.84236,0.82477 1.84226,1.84226 -1.8e-4,1.01729 -0.82497,1.84185 -1.84226,1.84175 h -9.15035 z"
       id="rect3991"
       inkscape:connector-curvature="0" />
    <path
       style="color:#000000;font-style:normal;font-variant:normal;font-weight:normal;font-stretch:normal;font-size:medium;line-height:normal;font-family:sans-serif;font-variant-ligatures:normal;font-variant-position:normal;font-variant-caps:normal;font-variant-numeric:normal;font-variant-alternates:normal;font-feature-settings:normal;text-indent:0;text-align:start;text-decoration:none;text-decoration-line:none;text-decoration-style:solid;text-decoration-color:#000000;letter-spacing:normal;word-spacing:normal;text-transform:none;writing-mode:lr-tb;direction:ltr;text-orientation:mixed;dominant-baseline:auto;baseline-shift:baseline;text-anchor:start;white-space:normal;shape-padding:0;clip-rule:nonzero;display:inline;overflow:visible;visibility:visible;opacity:1;isolation:auto;mix-blend-mode:normal;color-interpolation:sRGB;color-interpolation-filters:linearRGB;solid-color:#000000;solid-opacity:1;vector-effect:none;fill:#98fe00;fill-opacity:1;fill-rule:nonzero;stroke:none;stroke-width:10.05416679;stroke-linecap:round;stroke-linejoin:round;stroke-miterlimit:4;stroke-dasharray:none;stroke-dashoffset:0;stroke-opacity:1;paint-order:normal;color-rendering:auto;image-rendering:auto;shape-rendering:auto;text-rendering:auto;enable-background:accumulate"
       d="m 123.87615,151.9994 c -16.97616,2.2e-4 -30.845785,13.87002 -30.845665,30.84618 -8e-5,8.5456 4.57019,16.46178 11.970845,20.73465 7.40077,4.27289 16.54144,4.27289 23.94221,0 7.40066,-4.27287 11.97093,-12.18905 11.97084,-20.73465 -9e-5,-9.533 -7.83596,-17.36887 -17.36896,-17.36896 -9.53329,-2.9e-4 -17.36939,7.83568 -17.36949,17.36896 a 5.027586,5.027586 0 0 0 0,5.3e-4 c 2.7e-4,3.81499 2.0472,7.35973 5.3511,9.26714 3.30414,1.90769 7.39753,1.90769 10.70167,0 a 5.027586,5.027586 0 0 0 0,-5.3e-4 c 3.30375,-1.90761 5.35044,-5.4522 5.35058,-9.26714 a 5.027586,5.027586 0 1 0 -10.05417,0 c -1e-5,0.23933 -0.11623,0.44102 -0.32349,0.56069 v -5.3e-4 c -0.20729,0.11969 -0.44022,0.11969 -0.64751,0 a 5.027586,5.027586 0 0 0 -5.3e-4,0 c -0.20729,-0.11966 -0.32347,-0.32134 -0.32349,-0.56069 2.6e-4,-4.09928 3.21596,-7.31441 7.31531,-7.31428 4.0994,4e-5 7.31476,3.2154 7.3148,7.3148 5e-5,4.96971 -2.63989,9.54227 -6.94376,12.02718 -4.30393,2.4849 -9.58411,2.4849 -13.88804,0 -4.30387,-2.48491 -6.94381,-7.05747 -6.94376,-12.02718 -8e-5,-11.5425 9.24899,-20.79186 20.79149,-20.79201 11.54267,-8e-5 20.7921,9.24934 20.79201,20.79201 v 20.35897 a 5.027586,5.027586 0 1 0 10.05417,0 v -20.35896 c 1.4e-4,-16.97639 -13.86977,-30.8463 -30.84616,-30.84618 z"
       id="circle4051"
       inkscape:connector-curvature="0" />
  </g>
</svg>
