<?xml version="1.0" standalone="no"?>
<!DOCTYPE svg PUBLIC "-//W3C//DTD SVG 20010904//EN"
 "http://www.w3.org/TR/2001/REC-SVG-20010904/DTD/svg10.dtd">
<svg version="1.0" xmlns="http://www.w3.org/2000/svg"
 width="800.000000pt" height="800.000000pt" viewBox="0 0 800.000000 800.000000"
 preserveAspectRatio="xMidYMid meet">
<metadata>
Created by potrace 1.11, written by Peter Selinger 2001-2013
</metadata>
<g transform="translate(0.000000,800.000000) scale(0.100000,-0.100000)"
fill="#000000" stroke="none">
<path d="M3895 7303 c-1331 -33 -2556 -831 -3140 -2046 -135 -281 -224 -544
-285 -842 -58 -281 -84 -689 -61 -945 63 -684 348 -1298 826 -1775 932 -933
2380 -1101 3504 -408 651 402 1117 1060 1283 1813 16 74 31 137 34 139 2 2 4
-419 4 -936 0 -911 1 -942 20 -1019 90 -352 386 -583 746 -584 325 0 600 185
718 483 57 144 56 113 56 1441 0 751 -4 1273 -10 1352 -38 471 -162 919 -371
1335 -298 596 -771 1112 -1339 1461 -597 367 -1274 548 -1985 531z m565 -251
c319 -48 587 -123 856 -238 744 -318 1349 -890 1711 -1619 198 -397 311 -814
343 -1265 6 -87 10 -618 10 -1325 0 -1298 2 -1256 -62 -1385 -41 -85 -151
-196 -236 -239 -97 -49 -171 -64 -282 -58 -223 11 -398 138 -486 352 l-29 70
-5 1290 c-6 1266 -6 1292 -28 1420 -99 593 -382 1075 -847 1447 -318 254 -746
425 -1173 469 -142 14 -451 7 -587 -15 -904 -145 -1624 -798 -1851 -1681 -50
-196 -68 -341 -68 -555 0 -276 38 -449 154 -685 197 -406 567 -702 1012 -810
779 -190 1587 279 1809 1048 66 226 81 475 40 632 -77 289 -285 498 -576 576
-114 31 -289 31 -404 0 -309 -81 -531 -323 -586 -636 -25 -145 -19 -187 32
-206 61 -23 103 27 103 121 0 108 65 246 160 340 132 132 318 187 502 149 190
-39 363 -205 413 -394 33 -129 13 -364 -46 -533 -288 -822 -1343 -1055 -1945
-430 -182 189 -287 409 -322 676 -37 285 36 668 184 966 351 703 1078 1124
1844 1066 855 -65 1559 -690 1731 -1536 27 -135 38 -475 20 -636 -35 -305
-122 -602 -256 -873 -142 -288 -282 -483 -504 -705 -233 -232 -476 -402 -762
-531 -1165 -526 -2527 -144 -3251 911 -229 334 -376 720 -435 1141 -21 151
-23 508 -4 679 120 1084 729 2022 1674 2579 383 225 854 381 1297 430 52 6
109 13 125 15 17 2 156 3 310 1 218 -2 310 -8 415 -23z"/>
</g>
</svg>
